<svg version="1.2" baseProfile="tiny" xmlns="http://www.w3.org/2000/svg" viewBox="0 0 512 512"><path fill="#2f2f2f" d="M337.48 223.3c.61 8.34-6.3 13.53-10.32 18.67-12.43 15.9-25.16 31.74-39.31 46.69-30.73 1.6-67.06 1.73-97.3 2.94-5.77.23-13.7 2.26-15.72-3.44-.84-8.47 6.33-13.57 10.32-18.67 12.39-15.84 25.02-31.47 38.82-46.68 31.65-1.82 68.53-1.5 99.75-2.95 5.14-.24 12.04-1.94 13.76 3.44zm31.45-135.13c5.18-3.91 10.9-7.19 14.25-11.3 2.6-3.18 7.45-10.67 7.37-16.22-.14-9.23-13.08-27.48-19.16-30.96-12.29-7.04-22.55 6.92-30.96 14.75-42.98 39.92-80.81 82.28-122.36 123.83-3.27 3.27-6.55 8.27-9.82 9.33-5.74 1.87-15.71 1.17-23.1 1.48-25.3 1.06-49.34.55-73.22-.5-32.51-1.43-58.86-8.35-90.9-7.86-2.8 16.28 6.14 33.52 14.74 42.26 12.43 12.64 36.56 14.25 62.4 14.25 22.34 0 46.32-1.35 65.36-1.96-8.36 9.99-19.17 21.19-29.98 33.4-8.84 10.02-23.95 23.15-28.5 35.88-5.05 14.17 3.34 30.4 8.85 41.28 4.24 8.37 10.83 23.15 21.62 25.06 3.6.63 8.62-1.17 13.27-1.97 14.3-2.43 26.47-5.95 37.34-8.84 17.74-4.7 34.32-5.8 52.1-9.34-25.58 28.05-60.76 55.9-92.39 80.1-4.81 3.69-10.36 7.02-14.25 10.8-3.87 3.78-9.7 12.01-9.83 18.69-.12 7.16 5.6 15 9.34 20.63 3.89 5.86 9.97 13.37 17.2 13.27 6.94-.1 16.54-10.5 22.11-15.73 20.3-19.02 38.43-38.43 57.5-57.49 19.08-19.08 38.53-37.98 57-57.98 4.58-4.98 13.45-17.38 19.16-19.17 6.1-1.9 15.58-1.16 23.1-1.47 24.9-1.05 50.28-.57 73.7.49 32.4 1.48 59.32 8.9 90.42 7.37a52.91 52.91 0 00-14.74-41.77c-22.34-22.89-88.86-11.67-127.76-12.28 8.16-10.03 18.85-21 29.48-32.92 9.68-10.86 23.36-22.6 28.5-35.38 5.92-14.68-3.15-31.25-8.84-42.75-4.33-8.75-10.67-23.18-22.12-24.57-7.7-.95-17.9 2.7-26.04 4.42-25.16 5.3-48.65 12.96-75.68 15.72 26.19-28.15 62.22-58 94.84-82.55z"/></svg>