<svg viewBox="0 0 1024 1024" fill="none" xmlns="http://www.w3.org/2000/svg"><path fill="#000" d="m255.915 160.491 3.78 84.383-10.26-3.787c3.96-30.651 14.219-52.829 30.779-66.532C296.773 160.852 317.833 154 343.392 154c30.959 0 55.078 9.736 72.358 29.209 17.639 19.473 26.459 45.978 26.459 79.515v184.452h-81.537V289.77c0-16.588-1.44-29.931-4.32-40.028-2.52-10.097-7.02-17.67-13.5-22.718-6.48-5.41-15.119-8.114-25.919-8.114-17.28 0-30.419 5.95-39.419 17.85-8.64 11.9-12.96 29.57-12.96 53.01v157.406h-82.077V160.491h73.438Zm520.46 286.685-3.24-82.76 10.26 3.787c-3.96 29.93-14.22 51.747-30.779 65.45-16.56 13.343-37.259 20.014-62.099 20.014-30.599 0-54.538-9.736-71.817-29.209-17.28-19.473-25.92-45.978-25.92-79.515V160.491h82.078v157.406c0 16.588 1.26 29.931 3.78 40.028 2.52 10.097 6.84 17.85 12.959 23.259 6.48 5.049 15.12 7.573 25.92 7.573 16.559 0 29.159-5.95 37.799-17.85 8.999-11.9 13.499-29.57 13.499-53.01V160.491h81.538v286.685h-73.978ZM447.272 566.178V934h-82.078V793.362l7.02 4.327c-4.68 13.343-11.34 24.702-19.98 34.078-8.639 9.015-18.899 15.867-30.779 20.555-11.879 4.688-25.019 7.032-39.419 7.032-25.919 0-48.238-6.491-66.958-19.473-18.359-13.343-32.219-31.193-41.578-53.551-9-22.718-13.5-48.322-13.5-76.81s4.5-53.911 13.5-76.269c9.359-22.718 23.219-40.569 41.578-53.551 18.72-13.342 41.039-20.013 66.958-20.013 22.32 0 41.219 5.228 56.699 15.686 15.479 10.458 26.819 25.603 34.019 45.437l-5.94 4.868 2.16-59.5h78.298Zm-83.698 187.697c4.68-13.342 7.02-28.127 7.02-44.355 0-15.867-2.34-30.291-7.02-43.273-4.68-13.343-11.88-23.981-21.599-31.914-9.36-8.294-20.88-12.441-34.559-12.441-20.52 0-36.359 8.474-47.519 25.423-10.8 16.588-16.199 37.323-16.199 62.205 0 25.243 5.399 46.158 16.199 62.746 11.16 16.588 26.999 24.882 47.519 24.882 13.679 0 25.199-3.966 34.559-11.9 9.719-7.933 16.919-18.391 21.599-31.373Zm416.188-94.66c-2.159-12.982-8.279-23.259-18.359-30.832-9.72-7.934-20.879-11.9-33.479-11.9-12.6 0-22.859 3.065-30.779 9.195-7.92 6.131-11.7 14.244-11.34 24.341.36 9.737 5.22 17.31 14.58 22.719 9.36 5.048 21.959 9.015 37.799 11.9 29.519 4.688 53.278 10.638 71.278 17.85 17.999 6.852 31.499 16.047 40.498 27.587 9.36 11.539 14.04 26.324 14.04 44.355 0 18.752-5.58 34.438-16.74 47.06-10.799 12.621-25.739 22.177-44.818 28.668-19.08 6.13-41.039 9.196-65.878 9.196-27.719 0-52.019-3.787-72.898-11.36-20.52-7.933-36.719-19.112-48.599-33.536-11.879-14.785-18.539-32.275-19.979-52.469l82.077-4.327c1.8 9.375 5.04 17.489 9.72 24.341 5.04 6.491 11.52 11.539 19.44 15.145 8.279 3.246 17.819 4.869 28.619 4.869 12.239 0 22.859-2.344 31.859-7.032 9-5.049 13.499-12.441 13.499-22.178-.36-6.491-2.52-11.9-6.479-16.227-3.6-4.328-8.46-7.573-14.58-9.737-5.76-2.163-13.68-4.327-23.759-6.491-2.88-.36-6.48-1.082-10.8-2.163-29.159-5.77-52.378-11.901-69.658-18.392-16.919-6.851-30.059-15.686-39.419-26.504-9.359-11.179-14.039-25.423-14.039-42.733 0-18.751 5.04-34.979 15.119-48.682 10.44-13.703 25.38-24.161 44.819-31.373 19.439-7.573 42.659-11.359 69.658-11.359 35.999 0 65.518 8.654 88.557 25.964 23.04 16.948 37.079 40.568 42.119 70.859l-82.078 3.246Z"/></svg>
