<svg xmlns="http://www.w3.org/2000/svg" height="1024" width="1024" viewBox="0 0 29 29"><path fill="#ffffff" d="M0,0 h29v29H0z" shapeRendering="crispEdges"></path><path fill="#000000" d="M0 0h7v1H0zM9 0h1v1H9zM11 0h2v1H11zM14 0h4v1H14zM20 0h1v1H20zM22,0 h7v1H22zM0 1h1v1H0zM6 1h1v1H6zM8 1h1v1H8zM10 1h2v1H10zM17 1h4v1H17zM22 1h1v1H22zM28,1 h1v1H28zM0 2h1v1H0zM2 2h3v1H2zM6 2h1v1H6zM11 2h1v1H11zM13 2h1v1H13zM15 2h2v1H15zM18 2h2v1H18zM22 2h1v1H22zM24 2h3v1H24zM28,2 h1v1H28zM0 3h1v1H0zM2 3h3v1H2zM6 3h1v1H6zM8 3h2v1H8zM12 3h4v1H12zM17 3h4v1H17zM22 3h1v1H22zM24 3h3v1H24zM28,3 h1v1H28zM0 4h1v1H0zM2 4h3v1H2zM6 4h1v1H6zM8 4h1v1H8zM10 4h2v1H10zM14 4h2v1H14zM18 4h2v1H18zM22 4h1v1H22zM24 4h3v1H24zM28,4 h1v1H28zM0 5h1v1H0zM6 5h1v1H6zM9 5h3v1H9zM13 5h4v1H13zM20 5h1v1H20zM22 5h1v1H22zM28,5 h1v1H28zM0 6h7v1H0zM8 6h1v1H8zM10 6h1v1H10zM12 6h1v1H12zM14 6h1v1H14zM16 6h1v1H16zM18 6h1v1H18zM20 6h1v1H20zM22,6 h7v1H22zM8 7h1v1H8zM19 7h1v1H19zM1 8h1v1H1zM3 8h4v1H3zM8 8h3v1H8zM12 8h1v1H12zM16 8h2v1H16zM19 8h4v1H19zM24 8h2v1H24zM27 8h1v1H27zM0 9h1v1H0zM2 9h3v1H2zM7 9h1v1H7zM9 9h3v1H9zM13 9h2v1H13zM17 9h1v1H17zM19 9h1v1H19zM21 9h1v1H21zM23 9h2v1H23zM26 9h2v1H26zM0 10h1v1H0zM3 10h1v1H3zM5 10h2v1H5zM9 10h1v1H9zM20 10h3v1H20zM24 10h1v1H24zM0 11h1v1H0zM2 11h2v1H2zM5 11h1v1H5zM9 11h1v1H9zM19 11h2v1H19zM24 11h2v1H24zM28,11 h1v1H28zM2 12h2v1H2zM5 12h4v1H5zM19 12h1v1H19zM21 12h2v1H21zM27 12h1v1H27zM7 13h1v1H7zM22 13h1v1H22zM24 13h1v1H24zM26,13 h3v1H26zM0 14h2v1H0zM6 14h2v1H6zM19 14h1v1H19zM22 14h2v1H22zM25 14h1v1H25zM28,14 h1v1H28zM2 15h4v1H2zM7 15h2v1H7zM24 15h4v1H24zM0 16h1v1H0zM2 16h6v1H2zM20 16h1v1H20zM23 16h1v1H23zM25 16h1v1H25zM28,16 h1v1H28zM0 17h2v1H0zM4 17h1v1H4zM8 17h2v1H8zM19 17h2v1H19zM24 17h2v1H24zM0 18h2v1H0zM4 18h1v1H4zM6 18h2v1H6zM9 18h1v1H9zM19 18h2v1H19zM25 18h2v1H25zM28,18 h1v1H28zM0 19h2v1H0zM4 19h2v1H4zM7 19h4v1H7zM13 19h2v1H13zM21 19h2v1H21zM24 19h1v1H24zM26 19h1v1H26zM0 20h7v1H0zM8 20h5v1H8zM15 20h3v1H15zM20 20h5v1H20zM26,20 h3v1H26zM8 21h1v1H8zM12 21h2v1H12zM15 21h1v1H15zM18 21h1v1H18zM20 21h1v1H20zM24 21h3v1H24zM0 22h7v1H0zM9 22h3v1H9zM15 22h2v1H15zM18 22h3v1H18zM22 22h1v1H22zM24 22h1v1H24zM26 22h1v1H26zM0 23h1v1H0zM6 23h1v1H6zM8 23h2v1H8zM11 23h1v1H11zM15 23h1v1H15zM17 23h4v1H17zM24 23h2v1H24zM0 24h1v1H0zM2 24h3v1H2zM6 24h1v1H6zM8 24h1v1H8zM10 24h1v1H10zM13 24h1v1H13zM18 24h7v1H18zM28,24 h1v1H28zM0 25h1v1H0zM2 25h3v1H2zM6 25h1v1H6zM8 25h4v1H8zM15 25h1v1H15zM17 25h1v1H17zM23 25h1v1H23zM25 25h1v1H25zM28,25 h1v1H28zM0 26h1v1H0zM2 26h3v1H2zM6 26h1v1H6zM12 26h1v1H12zM14 26h2v1H14zM18 26h1v1H18zM20 26h2v1H20zM23 26h2v1H23zM27,26 h2v1H27zM0 27h1v1H0zM6 27h1v1H6zM8 27h2v1H8zM11 27h1v1H11zM14 27h1v1H14zM18 27h1v1H18zM21 27h2v1H21zM24 27h3v1H24zM28,27 h1v1H28zM0 28h7v1H0zM9 28h2v1H9zM13 28h2v1H13zM18 28h3v1H18zM23 28h3v1H23z" shapeRendering="crispEdges"></path><image href="http://localhost:3030/img/x.svg" height="7.25" width="7.25" x="10.875" y="10.875" preserveAspectRatio="none"></image></svg>
